<svg width="68" height="68" viewBox="0 0 68 68" fill="none" xmlns="http://www.w3.org/2000/svg">
<circle cx="33.7893" cy="33.7893" r="33.7893" fill="#B9D95D"/>
<path d="M34 44L32.925 42.925C31.45 41.45 31.4625 39.05 32.95 37.6L34 36.575C33.5125 36.525 33.15 36.5 32.75 36.5C29.4125 36.5 22.75 38.175 22.75 41.5V44H34ZM32.75 34C35.5125 34 37.75 31.7625 37.75 29C37.75 26.2375 35.5125 24 32.75 24C29.9875 24 27.75 26.2375 27.75 29C27.75 31.7625 29.9875 34 32.75 34Z" fill="white"/>
<path d="M39.2246 43.725C38.7371 44.2125 37.9371 44.2125 37.4496 43.725L34.8621 41.1125C34.3871 40.625 34.3871 39.85 34.8621 39.375L34.8746 39.3625C35.3621 38.875 36.1496 38.875 36.6246 39.3625L38.3371 41.075L43.8746 35.5C44.3621 35.0125 45.1496 35.0125 45.6371 35.5L45.6496 35.5125C46.1246 36 46.1246 36.775 45.6496 37.25L39.2246 43.725Z" fill="white"/>
</svg>
