<svg width="48" height="48" viewBox="0 0 48 48" fill="none" xmlns="http://www.w3.org/2000/svg">
<path d="M6 32L16 22" stroke="#1F3965" stroke-width="3" stroke-linecap="square"/>
<path d="M18 22C19.1046 22 20 21.1046 20 20C20 18.8954 19.1046 18 18 18C16.8954 18 16 18.8954 16 20C16 21.1046 16.8954 22 18 22Z" stroke="#1F3965" stroke-width="3" stroke-linecap="square"/>
<path d="M28 32C29.1046 32 30 31.1046 30 30C30 28.8954 29.1046 28 28 28C26.8954 28 26 28.8954 26 30C26 31.1046 26.8954 32 28 32Z" stroke="#1F3965" stroke-width="3" stroke-linecap="square"/>
<path d="M30 28L42 16M20 22L26 28L20 22Z" stroke="#1F3965" stroke-width="3" stroke-linecap="square"/>
</svg>
