<svg width="68" height="68" viewBox="0 0 68 68" fill="none" xmlns="http://www.w3.org/2000/svg">
<circle cx="33.7893" cy="33.7893" r="33.7893" fill="#A7C6E7"/>
<path d="M35.4 21.575L28.475 28.5C28.0125 28.9625 27.75 29.6 27.75 30.2625V42.75C27.75 44.125 28.875 45.25 30.25 45.25H41.5C42.5 45.25 43.4 44.65 43.8 43.7375L47.875 34.225C48.925 31.75 47.1125 29 44.425 29H37.3625L38.55 23.275C38.675 22.65 38.4875 22.0125 38.0375 21.5625C37.3 20.8375 36.125 20.8375 35.4 21.575V21.575ZM22.75 45.25C24.125 45.25 25.25 44.125 25.25 42.75V32.75C25.25 31.375 24.125 30.25 22.75 30.25C21.375 30.25 20.25 31.375 20.25 32.75V42.75C20.25 44.125 21.375 45.25 22.75 45.25Z" fill="white"/>
</svg>
