<svg width="40" height="40" viewBox="0 0 40 40" fill="none" xmlns="http://www.w3.org/2000/svg">
<path fill-rule="evenodd" clip-rule="evenodd" d="M18.9167 36.4834H21.0334C21.3883 36.4704 21.7348 36.371 22.0426 36.1938C22.3505 36.0167 22.6105 35.7671 22.8 35.4667L22.9167 35.2834C22.9803 35.1722 23.0694 35.0202 23.1739 34.8421C23.5079 34.2726 23.9993 33.4348 24.3167 32.8L25.8167 32.1834C26.8167 32.5 28.4834 32.9834 28.7834 32.9834C29.1438 33.0696 29.5205 33.0613 29.8767 32.9591C30.233 32.8569 30.5568 32.6643 30.8167 32.4L32.3 30.9167C32.5616 30.655 32.7524 30.3311 32.8544 29.9754C32.9564 29.6197 32.9664 29.2439 32.8834 28.8834C32.8834 28.8667 32.4334 27.0334 32.0834 25.9167L32.6834 24.4167C33.6834 23.9167 35.1334 23.0334 35.35 22.9C35.6621 22.7028 35.919 22.4296 36.0968 22.1061C36.2746 21.7825 36.3675 21.4192 36.3667 21.05V18.95C36.369 18.5806 36.2769 18.2166 36.0989 17.8928C35.921 17.569 35.6632 17.2961 35.35 17.1C35.3303 17.0882 35.3069 17.0741 35.2803 17.0582C34.8582 16.8044 33.6124 16.0557 32.75 15.6167L32.1334 14.1334C32.4667 13.1167 32.9334 11.45 32.9334 11.1667C33.0248 10.8065 33.0189 10.4284 32.9164 10.0712C32.8139 9.71399 32.6185 9.39035 32.35 9.13336L30.8667 7.65003C30.6068 7.38578 30.283 7.1932 29.9267 7.09099C29.5705 6.98879 29.1938 6.98041 28.8334 7.06669C28.6167 7.11669 26.8834 7.55003 25.8667 7.86669L24.3834 7.25003C23.907 6.2972 23.0674 4.93584 22.8739 4.62208C22.8643 4.60655 22.8563 4.59358 22.85 4.58336C22.6539 4.27022 22.381 4.01243 22.0572 3.83449C21.7334 3.65654 21.3695 3.56436 21 3.56669H18.9C18.5309 3.56593 18.1675 3.65879 17.844 3.83659C17.5205 4.01438 17.2473 4.27132 17.05 4.58336L16.9 4.83336C16.6 5.33336 15.9334 6.46669 15.5334 7.25003L14.0334 7.86669C13.0334 7.55003 11.3667 7.06669 11.0834 7.06669C10.7204 6.97902 10.3409 6.98665 9.98168 7.08886C9.6225 7.19106 9.29583 7.38437 9.03337 7.65003L7.55004 9.13336C7.334 9.35158 7.16604 9.61262 7.05697 9.89966C6.94789 10.1867 6.90011 10.4934 6.9167 10.8L7.00004 11.1167C7.00004 11.1334 7.45004 12.9667 7.80004 14.0834L7.18337 15.5667C6.20004 16.0667 4.73337 16.9667 4.53337 17.1C4.21603 17.2929 3.95405 17.5647 3.77296 17.8889C3.59187 18.2131 3.49784 18.5787 3.50004 18.95V21.05C3.49784 21.4214 3.59187 21.787 3.77296 22.1112C3.95405 22.4354 4.21603 22.7072 4.53337 22.9L4.7667 23.05C5.2667 23.35 6.38337 24.0167 7.16671 24.4334L7.78337 25.9167C7.4667 26.95 6.98337 28.6 6.98337 28.8834C6.90034 29.2439 6.91031 29.6197 7.01234 29.9754C7.11438 30.3311 7.30514 30.655 7.5667 30.9167L9.05004 32.4C9.31432 32.663 9.64109 32.8545 9.99968 32.9565C10.3583 33.0586 10.7369 33.0678 11.1 32.9834C11.3167 32.9334 13.0334 32.5 14.05 32.1834L15.55 32.8C16.05 33.8 16.9334 35.25 17.0834 35.4667C17.278 35.7774 17.5483 36.0337 17.8689 36.2115C18.1895 36.3893 18.5501 36.4829 18.9167 36.4834ZM21 34.2334H19.05L19 34.1667C18.7 33.6834 17.7167 32.0167 17.5 31.4167L17.3 31L14.1667 29.6834L13.7334 29.8667C13.1 30.1 11.2667 30.5834 10.7 30.7167L9.33337 29.35V29.1C9.42371 28.7223 9.58689 28.1705 9.74314 27.6421C9.904 27.0982 10.0575 26.579 10.1167 26.3L10.2834 25.8834L8.98337 22.7334L8.5667 22.55C7.93337 22.25 6.25004 21.25 5.8167 20.9834V19.0334C6.28337 18.7167 7.9667 17.7334 8.55004 17.4667L8.98337 17.2834L10.2667 14.1167L10.1167 13.7C9.89428 13.1217 9.50034 11.5803 9.32225 10.8835C9.30017 10.7971 9.28141 10.7237 9.2667 10.6667L10.65 9.28336C11.1834 9.41669 13.05 9.90003 13.6834 10.1334L14.1 10.2834L17.25 8.98336L17.45 8.56669C17.7334 7.95003 18.7167 6.28336 19.0167 5.81669H21C21.3 6.30003 22.2834 7.96669 22.55 8.56669L22.75 8.98336L25.9 10.2834L26.3167 10.1167C26.9834 9.88336 28.85 9.40003 29.3667 9.28336L30.7334 10.65C30.5834 11.2667 30.1167 13.0834 29.8834 13.7L29.7334 14.1167L31.0334 17.2667L31.45 17.45C32.0834 17.75 33.7334 18.7334 34.2 19.0167V20.9834C33.7167 21.3 32.0334 22.2834 31.4667 22.55L31.0334 22.7334L29.7334 25.8667L29.9 26.3C30.0986 26.8391 30.4663 28.2474 30.6638 29.0042C30.6984 29.1366 30.7277 29.249 30.75 29.3334L29.3834 30.7H29.1167C28.4 30.5167 26.8834 30.1167 26.3334 29.9167L25.9 29.7667L22.7667 31.0667L22.5667 31.4834C22.2667 32.1167 21.2834 33.7834 21 34.2334ZM23.3425 14.9973C22.3531 14.3362 21.1898 13.9833 19.9998 13.9833C18.4041 13.9833 16.8738 14.6172 15.7454 15.7456C14.6171 16.8739 13.9832 18.4043 13.9832 20C13.9832 21.19 14.336 22.3533 14.9972 23.3427C15.6583 24.3321 16.598 25.1033 17.6974 25.5587C18.7968 26.0141 20.0065 26.1332 21.1736 25.9011C22.3408 25.6689 23.4128 25.0959 24.2543 24.2544C25.0957 23.413 25.6687 22.3409 25.9009 21.1738C26.1331 20.0067 26.0139 18.7969 25.5585 17.6975C25.1031 16.5981 24.332 15.6585 23.3425 14.9973ZM15.3701 13.0711C16.7405 12.1554 18.3517 11.6667 19.9998 11.6667C22.21 11.6667 24.3296 12.5447 25.8924 14.1075C27.4552 15.6703 28.3332 17.7899 28.3332 20C28.3332 21.6482 27.8444 23.2594 26.9288 24.6298C26.0131 26.0002 24.7116 27.0683 23.1889 27.699C21.6662 28.3297 19.9906 28.4948 18.3741 28.1732C16.7576 27.8517 15.2727 27.058 14.1073 25.8926C12.9418 24.7271 12.1482 23.2423 11.8266 21.6258C11.5051 20.0093 11.6701 18.3337 12.3008 16.811C12.9316 15.2883 13.9997 13.9868 15.3701 13.0711Z" fill="#1F3965"/>
</svg>
