<svg width="40" height="40" viewBox="0 0 40 40" fill="none" xmlns="http://www.w3.org/2000/svg">
<path d="M13.6168 19.5H13.1001V20.0167H13.6168V19.5Z" fill="#1F3965"/>
<path d="M13.6168 24.4833H13.1001V25H13.6168V24.4833Z" fill="#1F3965"/>
<path fill-rule="evenodd" clip-rule="evenodd" d="M24.35 12.9V5.66668H13.3333C12.7511 5.67529 12.1765 5.79935 11.6426 6.03166C11.1088 6.26397 10.6264 6.59992 10.2233 7.02003C9.82026 7.44014 9.50458 7.93607 9.29457 8.47907C9.08457 9.02208 8.98442 9.60136 8.99992 10.1833V29.8167C8.98442 30.3987 9.08457 30.9779 9.29457 31.521C9.50458 32.064 9.82026 32.5599 10.2233 32.98C10.6264 33.4001 11.1088 33.736 11.6426 33.9684C12.1765 34.2007 12.7511 34.3247 13.3333 34.3333H27.2833C28.4445 34.2942 29.5431 33.7973 30.3393 32.9511C31.1355 32.1049 31.5647 30.9781 31.5333 29.8167V14.0666H25.5167C25.2073 14.0666 24.9105 13.9437 24.6917 13.7249C24.4729 13.5061 24.35 13.2094 24.35 12.9ZM26.6833 11.6666V7.17927L30.1448 11.6666H26.6833ZM26.6666 3.33334H13.3333C12.4421 3.33301 11.56 3.51133 10.739 3.85777C9.91794 4.2042 9.1747 4.71173 8.55318 5.35033C7.93167 5.98894 7.44449 6.74567 7.12045 7.57578C6.79641 8.4059 6.64208 9.29256 6.66658 10.1833V29.8167C6.64208 30.7075 6.79641 31.5941 7.12045 32.4242C7.44449 33.2544 7.93167 34.0111 8.55318 34.6497C9.1747 35.2883 9.91794 35.7958 10.739 36.1423C11.56 36.4887 12.4421 36.667 13.3333 36.6667H27.3666C28.2507 36.656 29.1238 36.4695 29.9351 36.1181C30.7465 35.7668 31.4798 35.2575 32.0925 34.6201C32.7051 33.9826 33.1849 33.2296 33.5037 32.405C33.8226 31.5803 33.9743 30.7005 33.9499 29.8167V12.6667L26.6666 3.33334ZM14.3497 18.3333H12.383C12.2665 18.3333 12.1545 18.3784 12.0706 18.4592C11.9866 18.54 11.9373 18.6502 11.933 18.7667V20.75C11.9373 20.8664 11.9866 20.9767 12.0706 21.0575C12.1545 21.1383 12.2665 21.1834 12.383 21.1833H14.3497C14.4646 21.1833 14.5748 21.1377 14.6561 21.0564C14.7374 20.9752 14.783 20.8649 14.783 20.75V18.7667C14.783 18.6517 14.7374 18.5415 14.6561 18.4603C14.5748 18.379 14.4646 18.3333 14.3497 18.3333ZM27.7498 20.9167H18.3331C18.0237 20.9167 17.7269 20.7938 17.5081 20.575C17.2893 20.3562 17.1664 20.0595 17.1664 19.75C17.1664 19.4406 17.2893 19.1439 17.5081 18.9251C17.7269 18.7063 18.0237 18.5834 18.3331 18.5834H27.7498C28.0592 18.5834 28.3559 18.7063 28.5747 18.9251C28.7935 19.1439 28.9164 19.4406 28.9164 19.75C28.9164 20.0595 28.7935 20.3562 28.5747 20.575C28.3559 20.7938 28.0592 20.9167 27.7498 20.9167ZM12.383 23.3333H14.3497C14.4646 23.3333 14.5748 23.379 14.6561 23.4603C14.7374 23.5415 14.783 23.6517 14.783 23.7667V25.75C14.7854 25.8075 14.7758 25.8649 14.7548 25.9186C14.7339 25.9722 14.7021 26.0209 14.6613 26.0617C14.6206 26.1024 14.5719 26.1342 14.5183 26.1551C14.4646 26.1761 14.4072 26.1857 14.3497 26.1833H12.383C12.3247 26.1856 12.2666 26.176 12.2121 26.1553C12.1576 26.1345 12.1078 26.1029 12.0658 26.0625C12.0238 26.022 11.9903 25.9735 11.9675 25.9198C11.9447 25.8661 11.933 25.8083 11.933 25.75V23.7833C11.933 23.664 11.9804 23.5495 12.0648 23.4651C12.1492 23.3808 12.2637 23.3333 12.383 23.3333ZM27.7498 25.9H18.3331C18.0237 25.9 17.7269 25.7771 17.5081 25.5583C17.2893 25.3395 17.1664 25.0428 17.1664 24.7334C17.1664 24.424 17.2893 24.1272 17.5081 23.9084C17.7269 23.6896 18.0237 23.5667 18.3331 23.5667H27.7498C28.0592 23.5667 28.3559 23.6896 28.5747 23.9084C28.7935 24.1272 28.9164 24.424 28.9164 24.7334C28.9164 25.0428 28.7935 25.3395 28.5747 25.5583C28.3559 25.7771 28.0592 25.9 27.7498 25.9Z" fill="#1F3965"/>
</svg>
