<svg width="24" height="24" viewBox="0 0 24 24" fill="none" xmlns="http://www.w3.org/2000/svg">
<path d="M15.2177 9.42857C16.0457 9.42857 16.7177 10.1006 16.7177 10.9286V16.7134C16.7177 17.964 16.2209 19.1633 15.3367 20.0475C14.4524 20.9318 13.2531 21.4286 12.0026 21.4286C10.752 21.4286 9.55272 20.9318 8.66846 20.0475C7.7842 19.1633 7.28743 17.964 7.28743 16.7134V10.9286C7.28743 10.1006 7.95857 9.42857 8.78743 9.42857H15.2177ZM3.21429 9.42857L6.97029 9.42686C6.66141 9.79904 6.47546 10.2578 6.438 10.74L6.42943 10.9286V16.7134C6.42943 17.6846 6.67886 18.5983 7.11514 19.3937C6.52793 19.6499 5.88615 19.7559 5.24774 19.702C4.60933 19.6481 3.9944 19.436 3.45845 19.085C2.9225 18.734 2.4824 18.255 2.1779 17.6913C1.87339 17.1276 1.71406 16.497 1.71429 15.8563V10.9286C1.71451 10.5307 1.87274 10.1491 2.15418 9.86786C2.43562 9.58658 2.81638 9.42857 3.21429 9.42857ZM17.0349 9.42686L20.7857 9.42857C21.6137 9.42857 22.2857 10.1006 22.2857 10.9286V15.8571C22.286 16.4976 22.1268 17.128 21.8225 17.6915C21.5181 18.255 21.0783 18.7339 20.5426 19.0849C20.007 19.4359 19.3924 19.648 18.7542 19.7021C18.1161 19.7561 17.4745 19.6505 16.8874 19.3946L16.9354 19.3071C17.3031 18.6103 17.5269 17.8251 17.568 16.9929L17.5749 16.7134V10.9286C17.5749 10.3577 17.3717 9.83486 17.0349 9.42686ZM12 2.57143C12.394 2.57143 12.7841 2.64903 13.1481 2.79979C13.512 2.95055 13.8427 3.17153 14.1213 3.45011C14.3999 3.72868 14.6209 4.0594 14.7716 4.42338C14.9224 4.78735 15 5.17746 15 5.57143C15 5.96539 14.9224 6.3555 14.7716 6.71948C14.6209 7.08346 14.3999 7.41417 14.1213 7.69275C13.8427 7.97132 13.512 8.1923 13.1481 8.34307C12.7841 8.49383 12.394 8.57143 12 8.57143C11.2044 8.57143 10.4413 8.25536 9.87868 7.69275C9.31607 7.13014 9 6.36708 9 5.57143C9 4.77578 9.31607 4.01272 9.87868 3.45011C10.4413 2.8875 11.2044 2.57143 12 2.57143ZM18.8597 3.42857C19.1974 3.42857 19.5318 3.49508 19.8438 3.62431C20.1557 3.75354 20.4392 3.94295 20.678 4.18173C20.9168 4.4205 21.1062 4.70398 21.2354 5.01596C21.3646 5.32794 21.4311 5.66231 21.4311 6C21.4311 6.33768 21.3646 6.67206 21.2354 6.98404C21.1062 7.29602 20.9168 7.5795 20.678 7.81827C20.4392 8.05705 20.1557 8.24646 19.8438 8.37569C19.5318 8.50492 19.1974 8.57143 18.8597 8.57143C18.1777 8.57143 17.5237 8.30051 17.0414 7.81827C16.5592 7.33604 16.2883 6.68198 16.2883 6C16.2883 5.31801 16.5592 4.66396 17.0414 4.18173C17.5237 3.69949 18.1777 3.42857 18.8597 3.42857ZM5.14029 3.42857C5.47797 3.42857 5.81235 3.49508 6.12433 3.62431C6.43631 3.75354 6.71978 3.94295 6.95856 4.18173C7.19734 4.4205 7.38675 4.70398 7.51598 5.01596C7.6452 5.32794 7.71172 5.66231 7.71172 6C7.71172 6.33768 7.6452 6.67206 7.51598 6.98404C7.38675 7.29602 7.19734 7.5795 6.95856 7.81827C6.71978 8.05705 6.43631 8.24646 6.12433 8.37569C5.81235 8.50492 5.47797 8.57143 5.14029 8.57143C4.4583 8.57143 3.80425 8.30051 3.32201 7.81827C2.83978 7.33604 2.56886 6.68198 2.56886 6C2.56886 5.31801 2.83978 4.66396 3.32201 4.18173C3.80425 3.69949 4.4583 3.42857 5.14029 3.42857Z" fill="black"/>
</svg>
